<?xml version="1.0" encoding="UTF-8" standalone="no"?>
<!DOCTYPE svg  PUBLIC '-//W3C//DTD SVG 1.1//EN'  'http://www.w3.org/Graphics/SVG/1.1/DTD/svg11.dtd'>
<svg xmlns="http://www.w3.org/2000/svg" version="1.1">
<defs>
<font id="GiorgioSans-Regular" horiz-adv-x="334">
<font-face underline-thickness="50" bbox="-25 -96 521 822" units-per-em="1000" cap-height="678" ascent="910" font-family="Giorgio Sans Regular" x-height="567" underline-position="-150" font-weight="400" panose-1="2 11 6 3 3 2 2 4 2 4" descent="-90" unicode-range="U+0020-00FE"/>
<missing-glyph/>
<glyph unicode=" " glyph-name="space" horiz-adv-x="118"/>
<glyph unicode="!" glyph-name="exclam" horiz-adv-x="122" d="M43 113l-12 565h60l-12 -565h-36zM33 0v61h57v-61h-57z"/>
<glyph unicode='&quot;' glyph-name="quotedbl" horiz-adv-x="188" d="M80 678l-8 -118h-38l-8 118h54zM162 678l-9 -118h-37l-8 118h54z"/>
<glyph unicode="#" glyph-name="numbersign" horiz-adv-x="321" d="M157 0l25 237h-66l-25 -237h-46l25 237h-53v47h58l14 138h-54v47h59l22 209h46l-22 -209h66l22 209h45l-22 -209h53v-47h-58l-14 -138h54v-47h-59l-25 -237h-45zM135 422l-14 -138h66l14 138h-66z"/>
<glyph unicode="$" glyph-name="dollar" horiz-adv-x="335" d="M189 718v-36q114 -12 114 -131v-74h-53v76q0 71 -61 82v-265l32 -31q51 -51 71 -84.5t20 -83.5v-37q0 -58 -32 -95.5t-94 -42.5v-46h-43v46q-60 6 -90.5 42t-30.5 94v105h54v-106q0 -77 67 -89v297l-26 26q-53 51 -72.5 83t-19.5 81v26q0 55 31.5 89t89.5 38v36h43z M255 167q0 38 -15 66t-54 64v-256q34 5 51.5 29.5t17.5 60.5v36zM79 531q0 -33 15.5 -58.5t51.5 -60.5v224q-67 -10 -67 -81v-24z"/>
<glyph unicode="%" glyph-name="percent" horiz-adv-x="474" d="M386 678h46l-345 -678h-46zM134 392q-112 0 -112 125v41q0 125 112 125t112 -125v-41q0 -125 -112 -125zM134 435q59 0 59 76v53q0 76 -59 76t-59 -76v-53q0 -76 59 -76zM340 -5q-112 0 -112 125v41q0 125 112 125t112 -125v-41q0 -125 -112 -125zM340 38q59 0 59 76v53 q0 76 -59 76t-59 -76v-53q0 -76 59 -76z"/>
<glyph unicode="&amp;" glyph-name="ampersand" horiz-adv-x="366" d="M156 -6q-130 0 -130 150v101q0 98 80 117q-68 22 -68 111v67q0 144 134 144q71 0 101 -33.5t30 -108.5v-57h-55v58q0 51 -17 72.5t-57 21.5q-81 0 -81 -98v-73q0 -82 82 -82h177v-47h-39v-337h-48v51q-29 -57 -109 -57zM169 41q89 0 92 99v197h-90q-88 0 -88 -86v-107 q0 -103 86 -103z"/>
<glyph unicode="&apos;" glyph-name="quotesingle" horiz-adv-x="106" d="M80 678l-8 -118h-38l-8 118h54z"/>
<glyph unicode="(" glyph-name="parenleft" horiz-adv-x="195" d="M38 88v431q0 159 137 179v-44q-46 -10 -66.5 -41t-20.5 -93v-432q0 -62 20.5 -93t66.5 -41v-44q-137 20 -137 178z"/>
<glyph unicode=")" glyph-name="parenright" horiz-adv-x="195" d="M157 519v-431q0 -158 -137 -178v44q46 10 66.5 41t20.5 93v432q0 62 -20.5 93t-66.5 41v44q137 -20 137 -179z"/>
<glyph unicode="*" glyph-name="asterisk" horiz-adv-x="235" d="M153 488l-35 69l-35 -69l-41 30l55 56l-77 13l16 47l69 -36l-12 80h50l-12 -80l69 36l15 -47l-77 -13l56 -56z"/>
<glyph unicode="+" glyph-name="plus" horiz-adv-x="348" d="M23 313v44h128v143h47v-143h127v-44h-127v-142h-47v142h-128z"/>
<glyph unicode="," glyph-name="comma" horiz-adv-x="123" d="M93 61v-4l-32 -125h-40l14 129h58z"/>
<glyph unicode="-" glyph-name="hyphen" horiz-adv-x="172" d="M19 292v46h135v-46h-135z"/>
<glyph unicode="." glyph-name="period" horiz-adv-x="123" d="M33 0v61h57v-61h-57z"/>
<glyph unicode="/" glyph-name="slash" horiz-adv-x="205" d="M147 698h48l-145 -788h-48z"/>
<glyph unicode="0" glyph-name="zero" horiz-adv-x="359" d="M179 41q47 0 71 31.5t24 80.5v372q0 50 -24 81t-71 31q-46 0 -70 -31t-24 -81v-372q0 -49 24 -80.5t70 -31.5zM179 -6q-75 0 -113 46.5t-38 120.5v356q0 75 38 121t113 46t113.5 -46t38.5 -121v-356q0 -74 -38.5 -120.5t-113.5 -46.5z"/>
<glyph unicode="1" glyph-name="one" horiz-adv-x="203" d="M98 0v595h-1l-79 -92h-1v62l93 113h44v-678h-56z"/>
<glyph unicode="2" glyph-name="two" horiz-adv-x="326" d="M26 0v110q0 52 18 87t64 86l72 79q61 67 61 132v59q0 84 -78 84q-79 0 -79 -90v-79h-56v78q0 67 36 102.5t101 35.5q133 0 133 -131v-64q0 -42 -17 -77.5t-58 -81.5l-81 -89q-25 -28 -34.5 -40t-18 -35.5t-8.5 -55.5v-63h216v-47h-271z"/>
<glyph unicode="3" glyph-name="three" horiz-adv-x="341" d="M174 684q134 0 134 -143v-70q0 -86 -82 -109q88 -18 88 -117v-107q0 -144 -145 -144t-145 149v88h56v-92q0 -98 89 -98q88 0 88 98v110q0 88 -88 88h-41v46h39q42 0 64 22t22 61v75q0 96 -82 96q-84 0 -84 -92v-69h-55v65q0 68 35 105.5t107 37.5z"/>
<glyph unicode="4" glyph-name="four" horiz-adv-x="347" d="M10 141v36l208 501h60v-492h51v-45h-51v-141h-56v141h-212zM222 571l-159 -385h160v385h-1z"/>
<glyph unicode="5" glyph-name="five" horiz-adv-x="341" d="M186 454q56 0 92 -34t36 -112v-165q0 -149 -143 -149q-144 0 -144 152v79h55v-83q0 -101 89 -101q86 0 86 102v165q0 99 -87 99q-37 0 -62 -23t-25 -70v-12h-52v376h269v-47h-218v-233h1q27 56 103 56z"/>
<glyph unicode="6" glyph-name="six" horiz-adv-x="351" d="M176 -6q-73 0 -110.5 43.5t-37.5 123.5v359q0 79 38.5 121.5t109.5 42.5q138 0 138 -152v-45h-54v49q0 101 -83 101q-92 0 -92 -109v-161h1q29 60 105 60q134 0 134 -157v-117q0 -159 -149 -159zM176 41q92 0 92 108v124q0 107 -90 107q-40 0 -66.5 -27t-26.5 -77v-124 q0 -111 91 -111z"/>
<glyph unicode="7" glyph-name="seven" horiz-adv-x="296" d="M14 632v46h260v-84l-159 -594h-57l161 600v32h-205z"/>
<glyph unicode="8" glyph-name="eight" horiz-adv-x="357" d="M178 -6q-77 0 -114.5 42.5t-37.5 114.5v88q0 107 83 138q-69 29 -69 125v35q0 70 34.5 108.5t103.5 38.5q70 0 104.5 -38.5t34.5 -108.5v-35q0 -96 -70 -125q84 -32 84 -138v-88q0 -72 -38 -114.5t-115 -42.5zM178 41q49 0 72.5 29.5t23.5 78.5v98q0 48 -23.5 77 t-72.5 29q-48 0 -71.5 -29t-23.5 -77v-98q0 -49 23.5 -78.5t71.5 -29.5zM178 400q85 0 85 99v39q0 99 -85 99q-84 0 -84 -99v-39q0 -99 84 -99z"/>
<glyph unicode="9" glyph-name="nine" horiz-adv-x="351" d="M174 684q73 0 111 -43.5t38 -123.5v-360q0 -81 -38.5 -122t-109.5 -41q-142 0 -142 152v45h54v-49q0 -101 87 -101q93 0 93 108v162h-1q-33 -60 -111 -60q-129 0 -129 157v117q0 159 148 159zM174 637q-92 0 -92 -109v-123q0 -107 91 -107q40 0 66.5 27t27.5 77v123 q0 54 -24 83t-69 29z"/>
<glyph unicode=":" glyph-name="colon" horiz-adv-x="123" d="M33 263v61h57v-61h-57zM33 0v61h57v-61h-57z"/>
<glyph unicode=";" glyph-name="semicolon" horiz-adv-x="123" d="M93 61v-4l-32 -125h-40l14 129h58zM35 263v61h57v-61h-57z"/>
<glyph unicode="&lt;" glyph-name="less" horiz-adv-x="313" d="M16 316v29l273 134v-50l-210 -98l210 -98v-51z"/>
<glyph unicode="=" glyph-name="equal" horiz-adv-x="358" d="M24 251v41h310v-41h-310zM24 356v41h310v-41h-310z"/>
<glyph unicode="&gt;" glyph-name="greater" horiz-adv-x="313" d="M297 316l-273 -134v51l210 98l-210 98v50l273 -134v-29z"/>
<glyph unicode="?" glyph-name="question" horiz-adv-x="315" d="M165 113h-51v93q0 46 8.5 68t35.5 63l43 64q31 47 31 93v51q0 92 -76 92q-79 0 -79 -88v-76h-55v76q0 135 135 135q131 0 131 -140v-51q0 -34 -9.5 -59t-33.5 -60l-43 -64q-15 -23 -21 -33.5t-11 -28.5t-5 -42v-93zM111 0v61h57v-61h-57z"/>
<glyph unicode="@" glyph-name="at" horiz-adv-x="505" d="M398 35q-67 0 -75 54h-1q-28 -54 -84 -54q-47 0 -74.5 27.5t-27.5 85.5v278q0 60 29 89t75 29q51 0 77 -39h1v34h49v-428q0 -23 9 -31.5t28 -8.5q32 0 32 43v380q0 157 -182 157q-82 0 -134 -42t-52 -124v-364q0 -85 50.5 -131.5t143.5 -46.5h157v-33h-157 q-109 0 -170 55.5t-61 155.5v364q0 95 65 147t158 52q97 0 158.5 -47.5t61.5 -142.5v-377q0 -82 -76 -82zM251 76q29 0 45.5 18.5t16.5 52.5v280q0 38 -16.5 56.5t-43.5 18.5q-63 0 -63 -76v-278q0 -72 61 -72z"/>
<glyph unicode="A" glyph-name="A" horiz-adv-x="360" d="M65 0h-55l134 678h70l136 -678h-58l-32 164h-164zM177 588l-72 -376h146l-73 376h-1z"/>
<glyph unicode="B" glyph-name="B" horiz-adv-x="333" d="M29 0v678h131q135 0 135 -127v-93q0 -88 -71 -105q89 -15 89 -109v-117q0 -127 -137 -127h-147zM86 47h84q87 0 87 80v122q0 78 -89 78h-82v-280zM155 631h-69v-258h72q83 0 83 80v98q0 80 -86 80z"/>
<glyph unicode="C" glyph-name="C" horiz-adv-x="347" d="M179 -6q-77 0 -114 47t-37 122v352q0 76 37 122.5t114 46.5q80 0 111.5 -39.5t31.5 -116.5v-80h-56v84q0 53 -18.5 79t-67.5 26t-72 -31.5t-23 -82.5v-368q0 -51 23 -82.5t72 -31.5t68 27t19 78v120h55v-116q0 -156 -143 -156z"/>
<glyph unicode="D" glyph-name="D" horiz-adv-x="355" d="M86 631v-584h78q55 0 80.5 30.5t25.5 81.5v360q0 51 -25.5 81.5t-80.5 30.5h-78zM29 678h142q81 0 118.5 -46t37.5 -122v-342q0 -75 -37.5 -121.5t-118.5 -46.5h-142v678z"/>
<glyph unicode="E" glyph-name="E" horiz-adv-x="301" d="M29 0v678h249v-47h-192v-263h139v-47h-139v-274h192v-47h-249z"/>
<glyph unicode="F" glyph-name="F" horiz-adv-x="284" d="M29 0v678h242v-47h-185v-263h139v-47h-139v-321h-57z"/>
<glyph unicode="G" glyph-name="G" horiz-adv-x="362" d="M188 297v47h140v-344h-48v59q-27 -65 -107 -65q-73 0 -109 47t-36 122v352q0 75 38 122t115 47q81 0 114 -40t33 -116v-60h-55v64q0 52 -20 78.5t-71 26.5q-49 0 -73 -31.5t-24 -82.5v-368q0 -51 23 -82.5t72 -31.5q92 0 92 108v148h-84z"/>
<glyph unicode="H" glyph-name="H" horiz-adv-x="351" d="M265 0v321h-179v-321h-57v678h57v-309h179v309h57v-678h-57z"/>
<glyph unicode="I" glyph-name="I" horiz-adv-x="115" d="M29 0v678h57v-678h-57z"/>
<glyph unicode="J" glyph-name="J" horiz-adv-x="309" d="M225 678h57v-544q0 -140 -132 -140q-128 0 -128 135v137h55v-138q0 -87 73 -87q75 0 75 88v549z"/>
<glyph unicode="K" glyph-name="K" horiz-adv-x="331" d="M266 0l-180 340v-340h-57v678h57v-319l180 319h59l-183 -323l184 -355h-60z"/>
<glyph unicode="L" glyph-name="L" horiz-adv-x="268" d="M29 0v678h57v-631h170v-47h-227z"/>
<glyph unicode="M" glyph-name="M" horiz-adv-x="432" d="M346 0v564h-4l-113 -564h-34l-113 564h-3v-564h-50v678h79l104 -523h1l103 523h87v-678h-57z"/>
<glyph unicode="N" glyph-name="N" horiz-adv-x="346" d="M263 0l-184 550v-550h-50v678h60l178 -529v529h50v-678h-54z"/>
<glyph unicode="O" glyph-name="O" horiz-adv-x="365" d="M182 41q49 0 73.5 32t24.5 82v368q0 51 -24.5 82.5t-73.5 31.5t-73 -31.5t-24 -82.5v-368q0 -50 24.5 -82t72.5 -32zM182 -6q-77 0 -115.5 47t-38.5 122v352q0 75 38.5 122t115.5 47q78 0 116.5 -47t38.5 -122v-352q0 -75 -38.5 -122t-116.5 -47z"/>
<glyph unicode="P" glyph-name="P" horiz-adv-x="324" d="M29 0v678h136q137 0 137 -128v-173q0 -131 -137 -131h-79v-246h-57zM159 631h-73v-339h73q86 0 86 81v178q0 80 -86 80z"/>
<glyph unicode="Q" glyph-name="Q" horiz-adv-x="365" d="M343 -67l-190 40v25q-63 9 -94 53.5t-31 111.5v352q0 75 38.5 122t115.5 47q78 0 116.5 -47t38.5 -122v-352q0 -62 -27 -105.5t-82 -56.5l115 -24v-44zM182 41q49 0 73.5 31t24.5 80v371q0 51 -24.5 82.5t-73.5 31.5t-73 -31.5t-24 -82.5v-371q0 -49 24.5 -80t72.5 -31z "/>
<glyph unicode="R" glyph-name="R" horiz-adv-x="326" d="M259 0l-173 342v-342h-57v678h134q138 0 138 -128v-100q0 -131 -141 -131h-1l163 -319h-63zM157 631h-71v-266h71q86 0 86 81v105q0 80 -86 80z"/>
<glyph unicode="S" glyph-name="S" d="M167 -6q-72 0 -108.5 37.5t-36.5 100.5v105h55v-106q0 -90 91 -90q42 0 64 25t22 65v36q0 38 -14.5 64.5t-53.5 62.5l-69 68q-52 50 -72 84t-20 83v26q0 59 36.5 94t101.5 35q139 0 139 -133v-74h-54v76q0 84 -85 84q-38 0 -61 -21t-23 -61v-24q0 -34 16.5 -58t56.5 -64 l69 -68q50 -50 70 -84.5t20 -85.5v-37q0 -63 -36.5 -101.5t-107.5 -38.5z"/>
<glyph unicode="T" glyph-name="T" horiz-adv-x="305" d="M13 631v47h279v-47h-111v-631h-57v631h-111z"/>
<glyph unicode="U" glyph-name="U" horiz-adv-x="351" d="M269 678h54v-524q0 -160 -146 -160q-149 0 -149 160v524h57v-529q0 -108 92 -108t92 108v529z"/>
<glyph unicode="V" glyph-name="V" horiz-adv-x="350" d="M285 678h55l-132 -678h-64l-134 678h58l109 -575h1z"/>
<glyph unicode="W" glyph-name="W" horiz-adv-x="503" d="M252 526h-1l-86 -526h-61l-92 678h56l71 -546h1l87 546h53l85 -543h1l72 543h52l-93 -678h-61z"/>
<glyph unicode="X" glyph-name="X" horiz-adv-x="348" d="M14 0l121 359l-110 319h59l91 -271l90 271h56l-110 -322l123 -356h-59l-104 307l-101 -307h-56z"/>
<glyph unicode="Y" glyph-name="Y" horiz-adv-x="328" d="M320 678l-127 -420v-258h-57v258l-128 420h58l100 -339h1l98 339h55z"/>
<glyph unicode="Z" glyph-name="Z" horiz-adv-x="309" d="M290 631l-212 -584h204v-47h-264v47l210 584h-190v47h252v-47z"/>
<glyph unicode="[" glyph-name="bracketleft" horiz-adv-x="187" d="M40 -90v788h127v-41h-77v-706h77v-41h-127z"/>
<glyph unicode="\" glyph-name="backslash" horiz-adv-x="205" d="M155 -90l-145 788h48l145 -788h-48z"/>
<glyph unicode="]" glyph-name="bracketright" horiz-adv-x="187" d="M147 698v-788h-127v41h77v706h-77v41h127z"/>
<glyph unicode="^" glyph-name="asciicircum" horiz-adv-x="258" d="M18 495l100 183h22l100 -183h-52l-60 112l-60 -112h-50z"/>
<glyph unicode="_" glyph-name="underscore" horiz-adv-x="255" d="M-2 -90v41h259v-41h-259z"/>
<glyph unicode="`" glyph-name="grave" horiz-adv-x="400" d="M119 637v44l157 -51v-37z"/>
<glyph unicode="a" glyph-name="a" horiz-adv-x="321" d="M295 0h-55v51h-2q-28 -57 -98 -57q-118 0 -118 134v46q0 61 27.5 88.5t92.5 56.5q57 25 77.5 42t20.5 37v39q0 46 -16 68t-56 22q-78 0 -78 -84v-55h-53v51q0 64 33 99t100 35q66 0 95.5 -35t29.5 -105v-433zM153 40q39 0 63 23.5t24 66.5v200q-16 -21 -86 -54 q-44 -22 -61 -41.5t-17 -61.5v-43q0 -90 77 -90z"/>
<glyph unicode="b" glyph-name="b" d="M29 0v678h55v-168h1q33 63 107 63q115 0 115 -135v-309q0 -135 -121 -135q-69 0 -101 60h-1v-54h-55zM252 131v305q0 91 -81 91q-37 0 -61.5 -24.5t-25.5 -66.5v-308q1 -42 24.5 -65t61.5 -23q82 0 82 91z"/>
<glyph unicode="c" glyph-name="c" horiz-adv-x="324" d="M250 196h53v-56q0 -146 -134 -146q-69 0 -105.5 40.5t-36.5 111.5v276q0 71 36.5 111t104.5 40q135 0 135 -144v-41h-54v45q0 94 -81 94q-42 0 -64.5 -25.5t-22.5 -72.5v-290q0 -47 23 -73t65 -26q81 0 81 95v61z"/>
<glyph unicode="d" glyph-name="d" d="M305 678v-678h-55v55h-2q-32 -61 -100 -61q-121 0 -121 135v309q0 67 33.5 101t87.5 34q69 0 100 -58h2v163h55zM82 436v-305q0 -91 80 -91q40 0 64 25t24 69v302q-1 42 -25.5 66.5t-61.5 24.5q-81 0 -81 -91z"/>
<glyph unicode="e" glyph-name="e" d="M255 196h52v-56q0 -146 -137 -146q-69 0 -106 40.5t-37 111.5v276q0 71 36.5 111t104.5 40t103.5 -38.5t35.5 -109.5v-141h-226v-145q0 -47 23.5 -73t66.5 -26q84 0 84 95v61zM81 429v-102h172v102q0 98 -85 98q-42 0 -64.5 -25.5t-22.5 -72.5z"/>
<glyph unicode="f" glyph-name="f" horiz-adv-x="200" d="M13 525v42h43v31q0 42 20 61t66 19h45v-41h-38q-21 0 -29.5 -9.5t-8.5 -30.5v-30h76v-42h-76v-525h-55v525h-43z"/>
<glyph unicode="g" glyph-name="g" horiz-adv-x="333" d="M250 567h55v-523q0 -65 -34.5 -102.5t-103.5 -37.5q-68 0 -103 33t-35 89v27h54v-24q0 -79 83 -79q84 0 84 87v107h-2q-31 -58 -100 -58q-121 0 -121 135v217q0 67 33.5 101t87.5 34q69 0 100 -58h2v52zM82 436v-213q0 -91 80 -91q39 0 63 23.5t25 65.5v215 q-1 42 -25.5 66.5t-61.5 24.5q-81 0 -81 -91z"/>
<glyph unicode="h" glyph-name="h" horiz-adv-x="329" d="M247 0v437q0 90 -78 90q-37 0 -61 -24t-24 -67v-436h-55v678h55v-167h1q30 62 104 62q113 0 113 -134v-439h-55z"/>
<glyph unicode="i" glyph-name="i" horiz-adv-x="113" d="M29 0v567h55v-567h-55zM29 628v50h55v-50h-55z"/>
<glyph unicode="j" glyph-name="j" horiz-adv-x="113" d="M29 567h55v-584q0 -39 -19.5 -56t-65.5 -17h-10v44h6q19 0 26.5 6.5t7.5 23.5v583zM29 628v50h55v-50h-55z"/>
<glyph unicode="k" glyph-name="k" horiz-adv-x="297" d="M293 0h-59l-150 289v-289h-55v678h55v-378l147 267h56l-148 -267z"/>
<glyph unicode="l" glyph-name="l" horiz-adv-x="113" d="M29 0v678h55v-678h-55z"/>
<glyph unicode="m" glyph-name="m" horiz-adv-x="519" d="M233 0v441q0 86 -71 86q-35 0 -56.5 -24t-21.5 -65v-438h-55v567h55v-55h1q28 61 97 61q73 0 97 -67h2q11 30 38.5 48.5t65.5 18.5q107 0 107 -130v-443h-55v441q0 86 -71 86q-32 0 -54 -22t-24 -59v-446h-55z"/>
<glyph unicode="n" glyph-name="n" horiz-adv-x="329" d="M247 0v437q0 90 -78 90q-37 0 -61 -24t-24 -67v-436h-55v567h55v-56h1q30 62 104 62q113 0 113 -134v-439h-55z"/>
<glyph unicode="o" glyph-name="o" horiz-adv-x="336" d="M309 421v-275q0 -71 -36.5 -111.5t-104.5 -40.5q-67 0 -104 40.5t-37 111.5v275q0 71 36.5 111.5t104.5 40.5t104.5 -40.5t36.5 -111.5zM168 40q42 0 64.5 26t22.5 73v289q0 47 -22.5 73t-64.5 26t-64.5 -26t-22.5 -73v-289q0 -47 22.5 -73t64.5 -26z"/>
<glyph unicode="p" glyph-name="p" d="M29 -90v657h55v-57h1q33 63 107 63q115 0 115 -135v-309q0 -135 -121 -135q-72 0 -101 60h-1v-144h-55zM252 131v305q0 91 -81 91q-37 0 -61.5 -24.5t-25.5 -66.5v-308q1 -42 24.5 -65t61.5 -23q82 0 82 91z"/>
<glyph unicode="q" glyph-name="q" d="M305 567v-657h-55v145h-2q-32 -61 -100 -61q-121 0 -121 135v309q0 67 33.5 101t87.5 34q69 0 100 -58h2v52h55zM82 436v-305q0 -91 80 -91q40 0 64 25t24 69v302q-1 42 -25.5 66.5t-61.5 24.5q-81 0 -81 -91z"/>
<glyph unicode="r" glyph-name="r" horiz-adv-x="200" d="M184 570v-60h-9q-42 0 -66 -23t-25 -65v-422h-55v567h55v-70h2q27 72 98 73z"/>
<glyph unicode="s" glyph-name="s" horiz-adv-x="314" d="M290 147v-19q0 -134 -135 -134q-65 0 -98.5 36.5t-33.5 101.5v56h52v-58q0 -90 80 -90q82 0 82 85v18q0 32 -14 54t-54 54l-58 46q-45 36 -64.5 66t-19.5 72v16q0 56 32 89t95 33q130 0 130 -133v-41h-52v43q0 85 -78 85q-75 0 -75 -74v-16q0 -28 13 -47t51 -49l58 -46 q52 -41 70.5 -71.5t18.5 -76.5z"/>
<glyph unicode="t" glyph-name="t" horiz-adv-x="210" d="M12 525v42h44v111h55v-111h79v-42h-79v-434q0 -26 10.5 -36.5t37.5 -10.5h31v-44h-37q-53 0 -75 21.5t-22 72.5v431h-44z"/>
<glyph unicode="u" glyph-name="u" horiz-adv-x="329" d="M82 567v-437q0 -90 78 -90q37 0 60.5 22t24.5 63v442h55v-567h-55v56h-1q-29 -62 -104 -62q-113 0 -113 134v439h55z"/>
<glyph unicode="v" glyph-name="v" horiz-adv-x="304" d="M247 567h54l-118 -567h-62l-118 567h56l94 -462h1z"/>
<glyph unicode="w" glyph-name="w" horiz-adv-x="464" d="M407 567h50l-91 -567h-54l-79 435l-81 -435h-54l-92 567h55l67 -439h1l82 439h47l81 -439h1z"/>
<glyph unicode="x" glyph-name="x" horiz-adv-x="311" d="M246 567h54l-104 -270l109 -297h-57l-92 253l-96 -253h-55l114 299l-104 268h57l88 -229z"/>
<glyph unicode="y" glyph-name="y" horiz-adv-x="303" d="M246 567h54l-134 -574q-11 -47 -33 -65t-70 -18h-28v44h27q26 0 37 10.5t19 40.5l13 50h-13l-115 512h56l92 -422h1z"/>
<glyph unicode="z" glyph-name="z" horiz-adv-x="284" d="M263 522l-186 -477h182v-45h-239v45l186 477h-173v45h230v-45z"/>
<glyph unicode="{" glyph-name="braceleft" horiz-adv-x="226" d="M206 -77h-15q-66 0 -92.5 30.5t-19.5 98.5l16 165q4 38 -8.5 55t-54.5 17h-14v43h14q42 0 54.5 17.5t8.5 55.5l-16 165q-7 68 19.5 98t92.5 30h15v-41h-18q-33 0 -47.5 -19t-10.5 -63l16 -165q8 -82 -55 -99q63 -16 55 -100l-16 -165q-4 -44 10 -62.5t48 -18.5h18v-42z "/>
<glyph unicode="|" glyph-name="bar" horiz-adv-x="115" d="M34 698h46v-788h-46v788z"/>
<glyph unicode="}" glyph-name="braceright" horiz-adv-x="226" d="M35 -77h-15v42h18q34 0 48 18.5t10 62.5l-16 165q-8 84 55 100q-63 17 -55 99l16 165q4 44 -10.5 63t-47.5 19h-18v41h15q66 0 92.5 -30t19.5 -98l-16 -165q-4 -38 8.5 -55.5t54.5 -17.5h14v-43h-14q-42 0 -54.5 -17t-8.5 -55l16 -165q7 -68 -19.5 -98.5t-92.5 -30.5z "/>
<glyph unicode="~" glyph-name="asciitilde" horiz-adv-x="246" d="M17 277q3 77 61 77q19 0 47.5 -14t38.5 -14q20 0 22 30h43q-3 -77 -62 -77q-18 0 -46 14t-39 14q-22 0 -22 -30h-43z"/>
<glyph unicode="¡" glyph-name="exclamdown" horiz-adv-x="122" d="M79 475l12 -565h-60l12 565h36zM89 588v-61h-57v61h57z"/>
<glyph unicode="¢" glyph-name="cent" horiz-adv-x="324" d="M252 196h51v-57q0 -133 -114 -143v-46h-43v46q-58 7 -88.5 46t-30.5 103v278q0 65 30.5 103t88.5 45v48h43v-48q114 -10 114 -141v-42h-53v46q0 83 -61 93v-488q63 10 63 95v62zM81 138q0 -84 65 -98v487q-65 -14 -65 -97v-292z"/>
<glyph unicode="£" glyph-name="sterling" horiz-adv-x="342" d="M12 301v47h39v189q0 147 137 147q131 0 131 -134v-67h-55v67q0 87 -75 87q-82 0 -82 -96v-193h138v-47h-138v-254h213v-47h-269v301h-39z"/>
<glyph unicode="¥" glyph-name="yen" horiz-adv-x="338" d="M38 259v37h104l-129 382h59l98 -310h1l99 310h55l-127 -382h102v-37h-102v-32h102v-37h-102v-190h-56v190h-104v37h104v32h-104z"/>
<glyph unicode="¦" glyph-name="brokenbar" horiz-adv-x="112" d="M77 -90h-43v376h43v-376zM34 698h43v-358h-43v358z"/>
<glyph unicode="§" glyph-name="section" horiz-adv-x="371" d="M24 325q0 40 22 67t58 38v2q-48 39 -48 114v12q0 59 32 92.5t96 33.5q132 0 132 -136v-38h-52v40q0 88 -80 88q-76 0 -76 -80v-11q0 -30 9.5 -49t38.5 -37l109 -67q44 -28 63 -55.5t19 -68.5q0 -40 -22 -67t-58 -37v-2q55 -45 55 -113v-19q0 -128 -136 -128 q-66 0 -99.5 35.5t-33.5 99.5v47h52v-49q0 -87 82 -87q43 0 62.5 20.5t19.5 62.5v13q0 30 -12 50.5t-47 42.5l-104 65q-43 27 -62.5 54.5t-19.5 66.5zM76 332q0 -28 12.5 -45.5t48.5 -39.5l90 -56q31 8 49.5 27t18.5 47q0 29 -12.5 45.5t-48.5 38.5l-93 58q-65 -21 -65 -75z "/>
<glyph unicode="¨" glyph-name="dieresis" horiz-adv-x="400" d="M127 606v50h53v-50h-53zM219 606v50h53v-50h-53z"/>
<glyph unicode="©" glyph-name="copyright" horiz-adv-x="405" d="M244 315h40v-32q0 -85 -81 -85q-42 0 -63 24.5t-21 66.5v104q0 91 84 91q81 0 81 -84v-20h-41v24q0 46 -40 46q-42 0 -42 -50v-117q0 -51 42 -51q41 0 41 48v35zM378 371v-61q0 -86 -46 -139t-129 -53t-129.5 53t-46.5 139v61q0 85 46.5 138t129.5 53t129 -53t46 -138z M352 310v61q0 77 -38 123t-111 46t-111.5 -46t-38.5 -123v-61q0 -78 38.5 -124t111.5 -46t111 46t38 124z"/>
<glyph unicode="ª" glyph-name="ordfeminine" horiz-adv-x="295" d="M269 196h-50v43h-2q-26 -49 -88 -49q-107 0 -107 119v26q0 28 7 48.5t25 35.5t33 24t45 23q50 23 68.5 39t18.5 35v25q0 37 -14.5 57t-50.5 20q-70 0 -70 -73v-45h-49v42q0 118 121 118q61 0 87 -31t26 -92v-365zM143 231q36 0 56 22.5t20 64.5v161q-18 -24 -76 -52 q-40 -20 -56 -38t-16 -56v-21q0 -42 16.5 -61.5t55.5 -19.5z"/>
<glyph unicode="«" glyph-name="guillemotleft" horiz-adv-x="243" d="M84 378h47l-60 -146l60 -146h-47l-61 146zM173 378h47l-60 -146l60 -146h-47l-61 146z"/>
<glyph unicode="®" glyph-name="registered" horiz-adv-x="405" d="M378 493v-61q0 -86 -46 -139t-129 -53t-129.5 53t-46.5 139v61q0 85 46.5 138t129.5 53t129 -53t46 -138zM352 432v61q0 77 -38 123t-111 46t-111.5 -46t-38.5 -123v-61q0 -78 38.5 -124t111.5 -46t111 46t38 124zM245 326l-71 138v-138h-39v278h75q69 0 69 -63v-28 q0 -31 -14 -45.5t-44 -16.5l66 -125h-42zM206 572h-32v-94h32q34 0 34 31v32q0 31 -34 31z"/>
<glyph unicode="¯" glyph-name="macron" horiz-adv-x="400" d="M119 610v37h162v-37h-162z"/>
<glyph unicode="°" glyph-name="degree" horiz-adv-x="182" d="M17 610q0 31 21.5 52t52.5 21q32 0 53 -21t21 -52q0 -30 -21 -51.5t-53 -21.5q-31 0 -52.5 21.5t-21.5 51.5zM55 610q0 -17 10 -27.5t26 -10.5t26 10.5t10 27.5t-10 27.5t-26 10.5t-26 -10.5t-10 -27.5z"/>
<glyph unicode="²" glyph-name="twosuperior" horiz-adv-x="210" d="M26 390v37q0 34 9 50.5t35 36.5l41 31q28 21 28 47v18q0 35 -35 35q-37 0 -37 -39v-29h-40v29q0 35 19.5 55t57.5 20q78 0 78 -72v-19q0 -40 -40 -71l-46 -35q-18 -13 -23 -23t-5 -30v-6h110v-35h-152z"/>
<glyph unicode="³" glyph-name="threesuperior" horiz-adv-x="213" d="M25 490h41v-30q0 -39 39 -39q37 0 37 37v34q0 18 -7.5 26t-27.5 8h-26v32h23q36 0 36 34v21q0 36 -36 36t-36 -39v-18h-40v17q0 73 77 73q76 0 76 -69v-20q0 -41 -35 -50q39 -7 39 -51v-33q0 -71 -80 -71t-80 75v27z"/>
<glyph unicode="´" glyph-name="acute" horiz-adv-x="400" d="M281 681v-44l-157 -44v37z"/>
<glyph unicode="¶" glyph-name="paragraph" horiz-adv-x="333" d="M214 0h-45v296h-26q-121 0 -121 109v164q0 109 121 109h161v-678h-45v636h-45v-636z"/>
<glyph unicode="·" glyph-name="periodcentered" horiz-adv-x="123" d="M33 312v61h57v-61h-57z"/>
<glyph unicode="¸" glyph-name="cedilla" horiz-adv-x="400" d="M127 -95v24q47 0 47 16q0 11 -23 11h-9v44h28v-21q46 -2 46 -34q0 -40 -89 -40z"/>
<glyph unicode="¹" glyph-name="onesuperior" horiz-adv-x="152" d="M71 678h39v-286h-47v229h-1l-45 -46h-1v46z"/>
<glyph unicode="º" glyph-name="ordmasculine" horiz-adv-x="303" d="M278 545v-216q0 -65 -32.5 -102t-93.5 -37t-94 37t-33 102v216q0 65 33 102t94 37t93.5 -37t32.5 -102zM152 232q76 0 76 92v227q0 91 -76 91q-77 0 -77 -91v-227q0 -92 77 -92z"/>
<glyph unicode="»" glyph-name="guillemotright" horiz-adv-x="243" d="M112 378h47l61 -146l-61 -146h-47l60 146zM23 378h47l61 -146l-61 -146h-47l60 146z"/>
<glyph unicode="¼" glyph-name="onequarter" horiz-adv-x="252" d="M24 325v30h207v-30h-207zM26 50v28l107 209h46v-204h27v-33h-27v-50h-44v50h-109zM134 220l-68 -137h69v137h-1zM112 678h39v-286h-47v229h-1l-45 -46h-1v46z"/>
<glyph unicode="½" glyph-name="onehalf" horiz-adv-x="251" d="M21 325v30h209v-30h-209zM109 678h39v-286h-47v229h-1l-45 -46h-1v46zM49 0v37q0 34 9 50.5t35 36.5l41 31q28 21 28 47v18q0 35 -35 35q-37 0 -37 -39v-29h-40v29q0 35 19.5 55t57.5 20q78 0 78 -72v-19q0 -40 -40 -71l-46 -35q-18 -13 -23 -23t-5 -30v-6h110v-35h-152z "/>
<glyph unicode="¾" glyph-name="threequarters" horiz-adv-x="253" d="M21 325v30h205v-30h-205zM43 490h41v-30q0 -39 39 -39q37 0 37 37v34q0 18 -7.5 26t-27.5 8h-26v32h23q36 0 36 34v21q0 36 -36 36t-36 -39v-18h-40v17q0 73 77 73q76 0 76 -69v-20q0 -41 -35 -50q39 -7 39 -51v-33q0 -71 -80 -71t-80 75v27zM26 50v28l107 209h46v-204 h27v-33h-27v-50h-44v50h-109zM134 220l-68 -137h69v137h-1z"/>
<glyph unicode="¿" glyph-name="questiondown" horiz-adv-x="315" d="M150 475h51v-93q0 -46 -8.5 -68t-35.5 -63l-43 -64q-31 -47 -31 -93v-51q0 -92 76 -92q79 0 79 88v76h55v-76q0 -135 -135 -135q-131 0 -131 140v51q0 34 9.5 59t33.5 60l43 64q15 23 21 33.5t11 28.5t5 42v93zM204 588v-61h-57v61h57z"/>
<glyph unicode="À" glyph-name="Agrave" horiz-adv-x="360" d="M65 0h-55l134 678h70l136 -678h-58l-32 164h-164zM177 588l-72 -376h146l-73 376h-1zM95 744v44l157 -51v-37z"/>
<glyph unicode="Á" glyph-name="Aacute" horiz-adv-x="360" d="M65 0h-55l134 678h70l136 -678h-58l-32 164h-164zM177 588l-72 -376h146l-73 376h-1zM264 788v-44l-157 -44v37z"/>
<glyph unicode="Â" glyph-name="Acircumflex" horiz-adv-x="360" d="M65 0h-55l134 678h70l136 -678h-58l-32 164h-164zM177 588l-72 -376h146l-73 376h-1zM179 751l-87 -50v35l74 59h25l73 -59v-35z"/>
<glyph unicode="Ã" glyph-name="Atilde" horiz-adv-x="360" d="M65 0h-55l134 678h70l136 -678h-58l-32 164h-164zM177 588l-72 -376h146l-73 376h-1zM213 715q-17 0 -40 11.5t-32 11.5q-18 0 -20 -25h-35q1 29 15 47t40 18q17 0 40 -11.5t32 -11.5q17 0 21 25h34q-2 -65 -55 -65z"/>
<glyph unicode="Ä" glyph-name="Adieresis" horiz-adv-x="360" d="M65 0h-55l134 678h70l136 -678h-58l-32 164h-164zM177 588l-72 -376h146l-73 376h-1zM106 713v50h53v-50h-53zM198 713v50h53v-50h-53z"/>
<glyph unicode="Å" glyph-name="Aring" horiz-adv-x="360" d="M65 0h-55l134 678h70l136 -678h-58l-32 164h-164zM177 588l-72 -376h146l-73 376h-1zM115 760q0 26 18 44t45 18t45 -18t18 -44t-17.5 -44t-45.5 -18q-27 0 -45 18t-18 44zM146 760q0 -14 9 -24t23 -10t23 10t9 24t-9 24t-23 10t-23 -10t-9 -24z"/>
<glyph unicode="Æ" glyph-name="AE" horiz-adv-x="523" d="M64 0h-56l186 678h306v-47h-186v-263h133v-47h-133v-274h186v-47h-243v164h-150zM232 631l-112 -419h137v419h-25z"/>
<glyph unicode="Ç" glyph-name="Ccedilla" horiz-adv-x="347" d="M135 -95v24q47 0 47 16q0 11 -23 11h-9v40q-62 9 -92 54.5t-30 112.5v352q0 76 37 122.5t114 46.5q80 0 111.5 -39.5t31.5 -116.5v-80h-56v84q0 53 -18.5 79t-67.5 26t-72 -31.5t-23 -82.5v-368q0 -51 23 -82.5t72 -31.5t68 27t19 78v120h55v-116q0 -156 -143 -156h-1 v-15q46 -2 46 -34q0 -40 -89 -40z"/>
<glyph unicode="È" glyph-name="Egrave" horiz-adv-x="301" d="M29 0v678h249v-47h-192v-263h139v-47h-139v-274h192v-47h-249zM79 744v44l157 -51v-37z"/>
<glyph unicode="É" glyph-name="Eacute" horiz-adv-x="301" d="M29 0v678h249v-47h-192v-263h139v-47h-139v-274h192v-47h-249zM247 788v-44l-157 -44v37z"/>
<glyph unicode="Ê" glyph-name="Ecircumflex" horiz-adv-x="301" d="M29 0v678h249v-47h-192v-263h139v-47h-139v-274h192v-47h-249zM162 751l-87 -50v35l74 59h25l73 -59v-35z"/>
<glyph unicode="Ë" glyph-name="Edieresis" horiz-adv-x="301" d="M29 0v678h249v-47h-192v-263h139v-47h-139v-274h192v-47h-249zM181 713v50h53v-50h-53zM89 713v50h53v-50h-53z"/>
<glyph unicode="Ì" glyph-name="Igrave" horiz-adv-x="115" d="M29 0v678h57v-678h-57zM-25 744v44l157 -51v-37z"/>
<glyph unicode="Í" glyph-name="Iacute" horiz-adv-x="115" d="M29 0v678h57v-678h-57zM143 788v-44l-157 -44v37z"/>
<glyph unicode="Î" glyph-name="Icircumflex" horiz-adv-x="115" d="M29 0v678h57v-678h-57zM58 755l-82 -54v30l69 65h26l68 -65v-30z"/>
<glyph unicode="Ï" glyph-name="Idieresis" horiz-adv-x="115" d="M29 0v678h57v-678h-57zM-9 713v50h50v-50h-50zM74 713v50h50v-50h-50z"/>
<glyph unicode="Ð" glyph-name="Eth" horiz-adv-x="362" d="M5 321v47h31v310h142q81 0 118.5 -46t37.5 -122v-342q0 -75 -37.5 -121.5t-118.5 -46.5h-142v321h-31zM93 631v-263h111v-47h-111v-274h78q55 0 80.5 30.5t25.5 81.5v360q0 51 -25.5 81.5t-80.5 30.5h-78z"/>
<glyph unicode="Ñ" glyph-name="Ntilde" horiz-adv-x="346" d="M263 0l-184 550v-550h-50v678h60l178 -529v529h50v-678h-54zM218 715q-17 0 -40 11.5t-32 11.5q-18 0 -20 -25h-35q1 29 15 47t40 18q17 0 40 -11.5t32 -11.5q17 0 21 25h34q-2 -65 -55 -65z"/>
<glyph unicode="Ò" glyph-name="Ograve" horiz-adv-x="365" d="M182 41q49 0 73.5 32t24.5 82v368q0 51 -24.5 82.5t-73.5 31.5t-73 -31.5t-24 -82.5v-368q0 -50 24.5 -82t72.5 -32zM182 -6q-77 0 -115.5 47t-38.5 122v352q0 75 38.5 122t115.5 47q78 0 116.5 -47t38.5 -122v-352q0 -75 -38.5 -122t-116.5 -47zM106 744v44l157 -51v-37 z"/>
<glyph unicode="Ó" glyph-name="Oacute" horiz-adv-x="365" d="M276 788v-44l-157 -44v37zM182 41q49 0 73.5 32t24.5 82v368q0 51 -24.5 82.5t-73.5 31.5t-73 -31.5t-24 -82.5v-368q0 -50 24.5 -82t72.5 -32zM182 -6q-77 0 -115.5 47t-38.5 122v352q0 75 38.5 122t115.5 47q78 0 116.5 -47t38.5 -122v-352q0 -75 -38.5 -122 t-116.5 -47z"/>
<glyph unicode="Ô" glyph-name="Ocircumflex" horiz-adv-x="365" d="M184 751l-87 -50v35l74 59h25l73 -59v-35zM182 41q49 0 73.5 32t24.5 82v368q0 51 -24.5 82.5t-73.5 31.5t-73 -31.5t-24 -82.5v-368q0 -50 24.5 -82t72.5 -32zM182 -6q-77 0 -115.5 47t-38.5 122v352q0 75 38.5 122t115.5 47q78 0 116.5 -47t38.5 -122v-352 q0 -75 -38.5 -122t-116.5 -47z"/>
<glyph unicode="Õ" glyph-name="Otilde" horiz-adv-x="365" d="M182 41q49 0 73.5 32t24.5 82v368q0 51 -24.5 82.5t-73.5 31.5t-73 -31.5t-24 -82.5v-368q0 -50 24.5 -82t72.5 -32zM182 -6q-77 0 -115.5 47t-38.5 122v352q0 75 38.5 122t115.5 47q78 0 116.5 -47t38.5 -122v-352q0 -75 -38.5 -122t-116.5 -47zM218 715q-17 0 -40 11.5 t-32 11.5q-18 0 -20 -25h-35q1 29 15 47t40 18q17 0 40 -11.5t32 -11.5q17 0 21 25h34q-2 -65 -55 -65z"/>
<glyph unicode="Ö" glyph-name="Odieresis" horiz-adv-x="365" d="M112 713v50h53v-50h-53zM204 713v50h53v-50h-53zM182 41q49 0 73.5 32t24.5 82v368q0 51 -24.5 82.5t-73.5 31.5t-73 -31.5t-24 -82.5v-368q0 -50 24.5 -82t72.5 -32zM182 -6q-77 0 -115.5 47t-38.5 122v352q0 75 38.5 122t115.5 47q78 0 116.5 -47t38.5 -122v-352 q0 -75 -38.5 -122t-116.5 -47z"/>
<glyph unicode="×" glyph-name="multiply" horiz-adv-x="331" d="M61 190l-31 31l105 112l-109 116l32 31l108 -115l104 111l32 -31l-106 -112l110 -115l-32 -32l-109 115z"/>
<glyph unicode="Ø" glyph-name="Oslash" horiz-adv-x="365" d="M182 -6q-51 0 -84 21l-14 -42h-41l22 69q-37 43 -37 121v352q0 75 38.5 122t115.5 47q51 0 87 -22l12 37h41l-21 -65q36 -43 36 -119v-352q0 -75 -38.5 -122t-116.5 -47zM182 637q-49 0 -73 -31.5t-24 -82.5v-368q0 -25 4 -41l163 498q-25 25 -70 25zM182 41 q49 0 73.5 32t24.5 82v384q0 12 -3 24l-163 -498q24 -24 68 -24z"/>
<glyph unicode="Ù" glyph-name="Ugrave" horiz-adv-x="351" d="M269 678h54v-524q0 -160 -146 -160q-149 0 -149 160v524h57v-529q0 -108 92 -108t92 108v529zM94 744v44l157 -51v-37z"/>
<glyph unicode="Ú" glyph-name="Uacute" horiz-adv-x="351" d="M262 788v-44l-157 -44v37zM269 678h54v-524q0 -160 -146 -160q-149 0 -149 160v524h57v-529q0 -108 92 -108t92 108v529z"/>
<glyph unicode="Û" glyph-name="Ucircumflex" horiz-adv-x="351" d="M177 751l-87 -50v35l74 59h25l73 -59v-35zM269 678h54v-524q0 -160 -146 -160q-149 0 -149 160v524h57v-529q0 -108 92 -108t92 108v529z"/>
<glyph unicode="Ü" glyph-name="Udieresis" horiz-adv-x="351" d="M103 713v50h53v-50h-53zM195 713v50h53v-50h-53zM269 678h54v-524q0 -160 -146 -160q-149 0 -149 160v524h57v-529q0 -108 92 -108t92 108v529z"/>
<glyph unicode="Ý" glyph-name="Yacute" horiz-adv-x="328" d="M320 678l-127 -420v-258h-57v258l-128 420h58l100 -339h1l98 339h55zM250 788v-44l-157 -44v37z"/>
<glyph unicode="Þ" glyph-name="Thorn" horiz-adv-x="324" d="M29 0v678h57v-120h79q137 0 137 -128v-157q0 -129 -137 -129h-79v-144h-57zM159 511h-73v-321h73q86 0 86 81v160q0 80 -86 80z"/>
<glyph unicode="ß" glyph-name="germandbls" horiz-adv-x="326" d="M84 556v-556h-55v553q0 65 35 98t101 33q60 0 89 -22.5t29 -61.5q0 -58 -53 -69q37 -8 53 -33.5t16 -72.5v-290q0 -66 -30.5 -100.5t-101.5 -34.5h-34v45h29q82 0 82 89v297q0 77 -70 77h-36v42h34q59 0 59 44q0 45 -66 45q-42 0 -61.5 -19t-19.5 -64z"/>
<glyph unicode="à" glyph-name="agrave" horiz-adv-x="321" d="M295 0h-55v51h-2q-28 -57 -98 -57q-118 0 -118 134v46q0 61 27.5 88.5t92.5 56.5q57 25 77.5 42t20.5 37v39q0 46 -16 68t-56 22q-78 0 -78 -84v-55h-53v51q0 64 33 99t100 35q66 0 95.5 -35t29.5 -105v-433zM153 40q39 0 63 23.5t24 66.5v200q-16 -21 -86 -54 q-44 -22 -61 -41.5t-17 -61.5v-43q0 -90 77 -90zM86 637v44l157 -51v-37z"/>
<glyph unicode="á" glyph-name="aacute" horiz-adv-x="321" d="M295 0h-55v51h-2q-28 -57 -98 -57q-118 0 -118 134v46q0 61 27.5 88.5t92.5 56.5q57 25 77.5 42t20.5 37v39q0 46 -16 68t-56 22q-78 0 -78 -84v-55h-53v51q0 64 33 99t100 35q66 0 95.5 -35t29.5 -105v-433zM153 40q39 0 63 23.5t24 66.5v200q-16 -21 -86 -54 q-44 -22 -61 -41.5t-17 -61.5v-43q0 -90 77 -90zM254 681v-44l-157 -44v37z"/>
<glyph unicode="â" glyph-name="acircumflex" horiz-adv-x="321" d="M295 0h-55v51h-2q-28 -57 -98 -57q-118 0 -118 134v46q0 61 27.5 88.5t92.5 56.5q57 25 77.5 42t20.5 37v39q0 46 -16 68t-56 22q-78 0 -78 -84v-55h-53v51q0 64 33 99t100 35q66 0 95.5 -35t29.5 -105v-433zM153 40q39 0 63 23.5t24 66.5v200q-16 -21 -86 -54 q-44 -22 -61 -41.5t-17 -61.5v-43q0 -90 77 -90zM169 644l-87 -50v35l74 59h25l73 -59v-35z"/>
<glyph unicode="ã" glyph-name="atilde" horiz-adv-x="321" d="M295 0h-55v51h-2q-28 -57 -98 -57q-118 0 -118 134v46q0 61 27.5 88.5t92.5 56.5q57 25 77.5 42t20.5 37v39q0 46 -16 68t-56 22q-78 0 -78 -84v-55h-53v51q0 64 33 99t100 35q66 0 95.5 -35t29.5 -105v-433zM153 40q39 0 63 23.5t24 66.5v200q-16 -21 -86 -54 q-44 -22 -61 -41.5t-17 -61.5v-43q0 -90 77 -90zM204 608q-17 0 -40 11.5t-32 11.5q-18 0 -20 -25h-35q1 29 15 47t40 18q17 0 40 -11.5t32 -11.5q17 0 21 25h34q-2 -65 -55 -65z"/>
<glyph unicode="ä" glyph-name="adieresis" horiz-adv-x="321" d="M295 0h-55v51h-2q-28 -57 -98 -57q-118 0 -118 134v46q0 61 27.5 88.5t92.5 56.5q57 25 77.5 42t20.5 37v39q0 46 -16 68t-56 22q-78 0 -78 -84v-55h-53v51q0 64 33 99t100 35q66 0 95.5 -35t29.5 -105v-433zM153 40q39 0 63 23.5t24 66.5v200q-16 -21 -86 -54 q-44 -22 -61 -41.5t-17 -61.5v-43q0 -90 77 -90zM96 606v50h53v-50h-53zM188 606v50h53v-50h-53z"/>
<glyph unicode="å" glyph-name="aring" horiz-adv-x="321" d="M295 0h-55v51h-2q-28 -57 -98 -57q-118 0 -118 134v46q0 61 27.5 88.5t92.5 56.5q57 25 77.5 42t20.5 37v39q0 46 -16 68t-56 22q-78 0 -78 -84v-55h-53v51q0 64 33 99t100 35q66 0 95.5 -35t29.5 -105v-433zM153 40q39 0 63 23.5t24 66.5v200q-16 -21 -86 -54 q-44 -22 -61 -41.5t-17 -61.5v-43q0 -90 77 -90zM105 654q0 26 18 44t45 18t45 -18t18 -44t-17.5 -44t-45.5 -18q-27 0 -45 18t-18 44zM136 654q0 -14 9 -24t23 -10t23 10t9 24t-9 24t-23 10t-23 -10t-9 -24z"/>
<glyph unicode="æ" glyph-name="ae" horiz-adv-x="547" d="M469 196h52v-56q0 -146 -136 -146q-86 0 -116 68h-2q-26 -68 -114 -68q-62 0 -96.5 33t-34.5 101v60q0 136 134 136h90v113q0 45 -17 67.5t-57 22.5q-82 0 -82 -84v-55h-53v51q0 63 34.5 98.5t99.5 35.5q79 0 105 -59q34 59 111 59q67 0 100.5 -38t33.5 -110v-144h-221 v-142q0 -99 86 -99q83 0 83 95v61zM157 38q42 0 65.5 23.5t23.5 68.5v151h-82q-88 0 -88 -95v-56q0 -92 81 -92zM300 429v-105h167v105q0 98 -81 98q-86 0 -86 -98z"/>
<glyph unicode="ç" glyph-name="ccedilla" horiz-adv-x="324" d="M129 -95v24q47 0 47 16q0 11 -23 11h-9v40q-57 7 -87 46.5t-30 103.5v276q0 71 36.5 111t104.5 40q135 0 135 -144v-41h-54v45q0 94 -81 94q-42 0 -64.5 -25.5t-22.5 -72.5v-290q0 -47 23 -73t65 -26q81 0 81 95v61h53v-56q0 -145 -131 -146v-15q46 -2 46 -34 q0 -40 -89 -40z"/>
<glyph unicode="è" glyph-name="egrave" d="M255 196h52v-56q0 -146 -137 -146q-69 0 -106 40.5t-37 111.5v276q0 71 36.5 111t104.5 40t103.5 -38.5t35.5 -109.5v-141h-226v-145q0 -47 23.5 -73t66.5 -26q84 0 84 95v61zM81 429v-102h172v102q0 98 -85 98q-42 0 -64.5 -25.5t-22.5 -72.5zM88 637v44l157 -51v-37z "/>
<glyph unicode="é" glyph-name="eacute" d="M255 196h52v-56q0 -146 -137 -146q-69 0 -106 40.5t-37 111.5v276q0 71 36.5 111t104.5 40t103.5 -38.5t35.5 -109.5v-141h-226v-145q0 -47 23.5 -73t66.5 -26q84 0 84 95v61zM81 429v-102h172v102q0 98 -85 98q-42 0 -64.5 -25.5t-22.5 -72.5zM256 681v-44l-157 -44v37z "/>
<glyph unicode="ê" glyph-name="ecircumflex" d="M255 196h52v-56q0 -146 -137 -146q-69 0 -106 40.5t-37 111.5v276q0 71 36.5 111t104.5 40t103.5 -38.5t35.5 -109.5v-141h-226v-145q0 -47 23.5 -73t66.5 -26q84 0 84 95v61zM81 429v-102h172v102q0 98 -85 98q-42 0 -64.5 -25.5t-22.5 -72.5zM171 644l-87 -50v35l74 59 h25l73 -59v-35z"/>
<glyph unicode="ë" glyph-name="edieresis" d="M255 196h52v-56q0 -146 -137 -146q-69 0 -106 40.5t-37 111.5v276q0 71 36.5 111t104.5 40t103.5 -38.5t35.5 -109.5v-141h-226v-145q0 -47 23.5 -73t66.5 -26q84 0 84 95v61zM81 429v-102h172v102q0 98 -85 98q-42 0 -64.5 -25.5t-22.5 -72.5zM190 606v50h53v-50h-53z M98 606v50h53v-50h-53z"/>
<glyph unicode="ì" glyph-name="igrave" horiz-adv-x="113" d="M29 0v567h55v-567h-55zM-6 637v44l116 -52v-36z"/>
<glyph unicode="í" glyph-name="iacute" horiz-adv-x="113" d="M29 0v567h55v-567h-55zM120 681v-44l-115 -44v36z"/>
<glyph unicode="î" glyph-name="icircumflex" horiz-adv-x="113" d="M29 0v567h55v-567h-55zM57 645l-66 -51v36l53 58h26l52 -58v-36z"/>
<glyph unicode="ï" glyph-name="idieresis" horiz-adv-x="113" d="M29 0v567h55v-567h-55zM-4 606v50h47v-50h-47zM70 606v50h47v-50h-47z"/>
<glyph unicode="ð" glyph-name="eth" horiz-adv-x="336" d="M69 586v31l64 20l-36 41h60l24 -27l69 22v-30l-48 -15l41 -44q66 -72 66 -155v-283q0 -71 -36.5 -111.5t-104.5 -40.5q-67 0 -104 40.5t-37 111.5v275q0 70 33.5 108.5t90.5 38.5q16 0 28 -3.5t19 -7.5t18 -14q-3 4 -23 27l-38 43zM168 40q42 0 64.5 26t22.5 73v289 q0 47 -22.5 73t-64.5 26t-64.5 -26t-22.5 -73v-289q0 -47 22.5 -73t64.5 -26z"/>
<glyph unicode="ñ" glyph-name="ntilde" horiz-adv-x="329" d="M247 0v437q0 90 -78 90q-37 0 -61 -24t-24 -67v-436h-55v567h55v-56h1q30 62 104 62q113 0 113 -134v-439h-55zM205 608q-17 0 -40 11.5t-32 11.5q-18 0 -20 -25h-35q1 29 15 47t40 18q17 0 40 -11.5t32 -11.5q17 0 21 25h34q-2 -65 -55 -65z"/>
<glyph unicode="ò" glyph-name="ograve" horiz-adv-x="336" d="M309 421v-275q0 -71 -36.5 -111.5t-104.5 -40.5q-67 0 -104 40.5t-37 111.5v275q0 71 36.5 111.5t104.5 40.5t104.5 -40.5t36.5 -111.5zM168 40q42 0 64.5 26t22.5 73v289q0 47 -22.5 73t-64.5 26t-64.5 -26t-22.5 -73v-289q0 -47 22.5 -73t64.5 -26zM86 637v44l157 -51 v-37z"/>
<glyph unicode="ó" glyph-name="oacute" horiz-adv-x="336" d="M254 681v-44l-157 -44v37zM309 421v-275q0 -71 -36.5 -111.5t-104.5 -40.5q-67 0 -104 40.5t-37 111.5v275q0 71 36.5 111.5t104.5 40.5t104.5 -40.5t36.5 -111.5zM168 40q42 0 64.5 26t22.5 73v289q0 47 -22.5 73t-64.5 26t-64.5 -26t-22.5 -73v-289q0 -47 22.5 -73 t64.5 -26z"/>
<glyph unicode="ô" glyph-name="ocircumflex" horiz-adv-x="336" d="M169 644l-87 -50v35l74 59h25l73 -59v-35zM309 421v-275q0 -71 -36.5 -111.5t-104.5 -40.5q-67 0 -104 40.5t-37 111.5v275q0 71 36.5 111.5t104.5 40.5t104.5 -40.5t36.5 -111.5zM168 40q42 0 64.5 26t22.5 73v289q0 47 -22.5 73t-64.5 26t-64.5 -26t-22.5 -73v-289 q0 -47 22.5 -73t64.5 -26z"/>
<glyph unicode="õ" glyph-name="otilde" horiz-adv-x="336" d="M309 421v-275q0 -71 -36.5 -111.5t-104.5 -40.5q-67 0 -104 40.5t-37 111.5v275q0 71 36.5 111.5t104.5 40.5t104.5 -40.5t36.5 -111.5zM168 40q42 0 64.5 26t22.5 73v289q0 47 -22.5 73t-64.5 26t-64.5 -26t-22.5 -73v-289q0 -47 22.5 -73t64.5 -26zM204 608 q-17 0 -40 11.5t-32 11.5q-18 0 -20 -25h-35q1 29 15 47t40 18q17 0 40 -11.5t32 -11.5q17 0 21 25h34q-2 -65 -55 -65z"/>
<glyph unicode="ö" glyph-name="odieresis" horiz-adv-x="336" d="M95 606v50h53v-50h-53zM187 606v50h53v-50h-53zM309 421v-275q0 -71 -36.5 -111.5t-104.5 -40.5q-67 0 -104 40.5t-37 111.5v275q0 71 36.5 111.5t104.5 40.5t104.5 -40.5t36.5 -111.5zM168 40q42 0 64.5 26t22.5 73v289q0 47 -22.5 73t-64.5 26t-64.5 -26t-22.5 -73 v-289q0 -47 22.5 -73t64.5 -26z"/>
<glyph unicode="÷" glyph-name="divide" horiz-adv-x="348" d="M23 313v44h302v-44h-302zM145 188v61h57v-61h-57zM145 421v61h57v-61h-57z"/>
<glyph unicode="ø" glyph-name="oslash" horiz-adv-x="336" d="M309 421v-275q0 -71 -36.5 -111.5t-104.5 -40.5q-42 0 -73 17l-13 -38h-39l21 61q-37 42 -37 112v275q0 71 36.5 111.5t104.5 40.5q45 0 75 -18l12 34h39l-20 -58q35 -40 35 -110zM81 139q0 -27 4 -43l143 414q-22 17 -60 17q-42 0 -64.5 -26t-22.5 -73v-289zM168 40 q42 0 64.5 26t22.5 73v289q0 22 -3 38l-142 -411q20 -15 58 -15z"/>
<glyph unicode="ù" glyph-name="ugrave" horiz-adv-x="329" d="M82 567v-437q0 -90 78 -90q37 0 61 23.5t24 66.5v437h55v-567h-55v56h-1q-29 -62 -104 -62q-113 0 -113 134v439h55zM81 637v44l157 -51v-37z"/>
<glyph unicode="ú" glyph-name="uacute" horiz-adv-x="329" d="M82 567v-437q0 -90 78 -90q37 0 60.5 22t24.5 63v442h55v-567h-55v56h-1q-29 -62 -104 -62q-113 0 -113 134v439h55zM249 681v-44l-157 -44v37z"/>
<glyph unicode="û" glyph-name="ucircumflex" horiz-adv-x="329" d="M82 567v-437q0 -90 78 -90q37 0 60.5 22t24.5 63v442h55v-567h-55v56h-1q-29 -62 -104 -62q-113 0 -113 134v439h55zM164 644l-87 -50v35l74 59h25l73 -59v-35z"/>
<glyph unicode="ü" glyph-name="udieresis" horiz-adv-x="329" d="M82 567v-437q0 -90 78 -90q37 0 60.5 22t24.5 63v442h55v-567h-55v56h-1q-29 -62 -104 -62q-113 0 -113 134v439h55zM182 606v50h53v-50h-53zM90 606v50h53v-50h-53z"/>
<glyph unicode="ý" glyph-name="yacute" horiz-adv-x="303" d="M247 567h54l-134 -574q-11 -47 -33 -65t-70 -18h-28v44h27q26 0 37 10.5t19 40.5l13 50h-13l-115 512h56l92 -422h1zM238 681v-44l-157 -44v37z"/>
<glyph unicode="þ" glyph-name="thorn" horiz-adv-x="333" d="M29 -90v768h55v-168h1q33 63 107 63q115 0 115 -135v-309q0 -135 -121 -135q-69 0 -101 60h-1v-144h-55zM252 131v305q0 91 -81 91q-37 0 -61.5 -24.5t-25.5 -66.5v-308q1 -42 24.5 -65t61.5 -23q82 0 82 91z"/>
</font>
</defs>
</svg>
